<mxfile host="app.diagrams.net" agent="Mozilla/5.0 (Macintosh; Intel Mac OS X 10_15_7) AppleWebKit/537.36 (KHTML, like Gecko) Chrome/136.0.0.0 Safari/537.36" version="27.1.1">
  <diagram name="第 1 页" id="h1xxf2oran17IMzUZSs9">
    <mxGraphModel dx="2253" dy="790" grid="1" gridSize="10" guides="1" tooltips="1" connect="1" arrows="1" fold="1" page="1" pageScale="1" pageWidth="827" pageHeight="1169" math="0" shadow="0">
      <root>
        <mxCell id="0" />
        <mxCell id="1" parent="0" />
        <mxCell id="W67yTYTHdaAG88P1Xub5-19" value="" style="group" vertex="1" connectable="0" parent="1">
          <mxGeometry x="-40" y="130" width="160" height="70" as="geometry" />
        </mxCell>
        <mxCell id="W67yTYTHdaAG88P1Xub5-1" value="base" style="rounded=0;whiteSpace=wrap;html=1;" vertex="1" parent="W67yTYTHdaAG88P1Xub5-19">
          <mxGeometry x="40" y="30" width="40" height="40" as="geometry" />
        </mxCell>
        <mxCell id="W67yTYTHdaAG88P1Xub5-2" value="length" style="rounded=0;whiteSpace=wrap;html=1;" vertex="1" parent="W67yTYTHdaAG88P1Xub5-19">
          <mxGeometry x="80" y="30" width="40" height="40" as="geometry" />
        </mxCell>
        <mxCell id="W67yTYTHdaAG88P1Xub5-3" value="page table register" style="text;html=1;align=center;verticalAlign=middle;whiteSpace=wrap;rounded=0;" vertex="1" parent="W67yTYTHdaAG88P1Xub5-19">
          <mxGeometry x="20" width="120" height="30" as="geometry" />
        </mxCell>
        <mxCell id="W67yTYTHdaAG88P1Xub5-20" style="edgeStyle=orthogonalEdgeStyle;rounded=0;orthogonalLoop=1;jettySize=auto;html=1;exitX=0.5;exitY=0;exitDx=0;exitDy=0;entryX=0.5;entryY=0;entryDx=0;entryDy=0;" edge="1" parent="1" source="W67yTYTHdaAG88P1Xub5-5" target="W67yTYTHdaAG88P1Xub5-18">
          <mxGeometry relative="1" as="geometry">
            <Array as="points">
              <mxPoint x="200" y="120" />
              <mxPoint x="680" y="120" />
            </Array>
          </mxGeometry>
        </mxCell>
        <mxCell id="W67yTYTHdaAG88P1Xub5-34" value="" style="edgeStyle=orthogonalEdgeStyle;rounded=0;orthogonalLoop=1;jettySize=auto;html=1;" edge="1" parent="1" source="W67yTYTHdaAG88P1Xub5-21" target="W67yTYTHdaAG88P1Xub5-28">
          <mxGeometry relative="1" as="geometry" />
        </mxCell>
        <mxCell id="W67yTYTHdaAG88P1Xub5-38" value="N" style="edgeLabel;html=1;align=center;verticalAlign=middle;resizable=0;points=[];" vertex="1" connectable="0" parent="W67yTYTHdaAG88P1Xub5-34">
          <mxGeometry x="-0.25" y="1" relative="1" as="geometry">
            <mxPoint x="-11" as="offset" />
          </mxGeometry>
        </mxCell>
        <mxCell id="W67yTYTHdaAG88P1Xub5-51" style="edgeStyle=orthogonalEdgeStyle;rounded=0;orthogonalLoop=1;jettySize=auto;html=1;exitX=1;exitY=0.5;exitDx=0;exitDy=0;exitPerimeter=0;entryX=0;entryY=0.5;entryDx=0;entryDy=0;" edge="1" parent="1" source="W67yTYTHdaAG88P1Xub5-21" target="W67yTYTHdaAG88P1Xub5-39">
          <mxGeometry relative="1" as="geometry" />
        </mxCell>
        <mxCell id="W67yTYTHdaAG88P1Xub5-52" value="Y" style="edgeLabel;html=1;align=center;verticalAlign=middle;resizable=0;points=[];" vertex="1" connectable="0" parent="W67yTYTHdaAG88P1Xub5-51">
          <mxGeometry x="-0.24" y="4" relative="1" as="geometry">
            <mxPoint x="-9" y="-6" as="offset" />
          </mxGeometry>
        </mxCell>
        <mxCell id="W67yTYTHdaAG88P1Xub5-21" value="p &amp;gt; length" style="strokeWidth=2;html=1;shape=mxgraph.flowchart.decision;whiteSpace=wrap;" vertex="1" parent="1">
          <mxGeometry x="90" y="240" width="100" height="40" as="geometry" />
        </mxCell>
        <mxCell id="W67yTYTHdaAG88P1Xub5-27" style="edgeStyle=orthogonalEdgeStyle;rounded=0;orthogonalLoop=1;jettySize=auto;html=1;exitX=1;exitY=0.5;exitDx=0;exitDy=0;" edge="1" parent="1" source="W67yTYTHdaAG88P1Xub5-6" target="W67yTYTHdaAG88P1Xub5-17">
          <mxGeometry relative="1" as="geometry" />
        </mxCell>
        <mxCell id="W67yTYTHdaAG88P1Xub5-36" style="edgeStyle=orthogonalEdgeStyle;rounded=0;orthogonalLoop=1;jettySize=auto;html=1;exitX=1;exitY=0.5;exitDx=0;exitDy=0;entryX=0;entryY=0.5;entryDx=0;entryDy=0;" edge="1" parent="1" source="W67yTYTHdaAG88P1Xub5-28" target="W67yTYTHdaAG88P1Xub5-10">
          <mxGeometry relative="1" as="geometry" />
        </mxCell>
        <mxCell id="W67yTYTHdaAG88P1Xub5-28" value="+" style="rounded=1;whiteSpace=wrap;html=1;" vertex="1" parent="1">
          <mxGeometry x="120" y="320" width="40" height="40" as="geometry" />
        </mxCell>
        <mxCell id="W67yTYTHdaAG88P1Xub5-31" style="edgeStyle=orthogonalEdgeStyle;rounded=0;orthogonalLoop=1;jettySize=auto;html=1;exitX=0.5;exitY=1;exitDx=0;exitDy=0;entryX=0;entryY=0.5;entryDx=0;entryDy=0;entryPerimeter=0;" edge="1" parent="1" source="W67yTYTHdaAG88P1Xub5-2" target="W67yTYTHdaAG88P1Xub5-21">
          <mxGeometry relative="1" as="geometry" />
        </mxCell>
        <mxCell id="W67yTYTHdaAG88P1Xub5-35" style="edgeStyle=orthogonalEdgeStyle;rounded=0;orthogonalLoop=1;jettySize=auto;html=1;exitX=0.5;exitY=1;exitDx=0;exitDy=0;entryX=0;entryY=0.5;entryDx=0;entryDy=0;" edge="1" parent="1" source="W67yTYTHdaAG88P1Xub5-1" target="W67yTYTHdaAG88P1Xub5-28">
          <mxGeometry relative="1" as="geometry" />
        </mxCell>
        <mxCell id="W67yTYTHdaAG88P1Xub5-39" value="boundary error" style="rounded=1;whiteSpace=wrap;html=1;" vertex="1" parent="1">
          <mxGeometry x="240" y="240" width="80" height="40" as="geometry" />
        </mxCell>
        <mxCell id="W67yTYTHdaAG88P1Xub5-44" value="" style="group" vertex="1" connectable="0" parent="1">
          <mxGeometry x="110" y="130" width="100" height="70" as="geometry" />
        </mxCell>
        <mxCell id="W67yTYTHdaAG88P1Xub5-15" value="" style="group" vertex="1" connectable="0" parent="W67yTYTHdaAG88P1Xub5-44">
          <mxGeometry x="10" y="30" width="80" height="40" as="geometry" />
        </mxCell>
        <mxCell id="W67yTYTHdaAG88P1Xub5-4" value="p" style="rounded=0;whiteSpace=wrap;html=1;" vertex="1" parent="W67yTYTHdaAG88P1Xub5-15">
          <mxGeometry width="40" height="40" as="geometry" />
        </mxCell>
        <mxCell id="W67yTYTHdaAG88P1Xub5-5" value="d" style="rounded=0;whiteSpace=wrap;html=1;" vertex="1" parent="W67yTYTHdaAG88P1Xub5-15">
          <mxGeometry x="40" width="40" height="40" as="geometry" />
        </mxCell>
        <mxCell id="W67yTYTHdaAG88P1Xub5-43" value="logical address" style="text;html=1;align=center;verticalAlign=middle;whiteSpace=wrap;rounded=0;" vertex="1" parent="W67yTYTHdaAG88P1Xub5-44">
          <mxGeometry width="100" height="30" as="geometry" />
        </mxCell>
        <mxCell id="W67yTYTHdaAG88P1Xub5-46" value="" style="group" vertex="1" connectable="0" parent="1">
          <mxGeometry x="300" y="130" width="160" height="70" as="geometry" />
        </mxCell>
        <mxCell id="W67yTYTHdaAG88P1Xub5-16" value="" style="group" vertex="1" connectable="0" parent="W67yTYTHdaAG88P1Xub5-46">
          <mxGeometry y="30" width="160" height="40" as="geometry" />
        </mxCell>
        <mxCell id="W67yTYTHdaAG88P1Xub5-17" value="p&#39;" style="rounded=0;whiteSpace=wrap;html=1;" vertex="1" parent="W67yTYTHdaAG88P1Xub5-16">
          <mxGeometry x="40" width="40" height="40" as="geometry" />
        </mxCell>
        <mxCell id="W67yTYTHdaAG88P1Xub5-18" value="d" style="rounded=0;whiteSpace=wrap;html=1;" vertex="1" parent="W67yTYTHdaAG88P1Xub5-16">
          <mxGeometry x="80" width="40" height="40" as="geometry" />
        </mxCell>
        <mxCell id="W67yTYTHdaAG88P1Xub5-45" value="physical address" style="text;html=1;align=center;verticalAlign=middle;whiteSpace=wrap;rounded=0;" vertex="1" parent="W67yTYTHdaAG88P1Xub5-46">
          <mxGeometry x="25" width="110" height="30" as="geometry" />
        </mxCell>
        <mxCell id="W67yTYTHdaAG88P1Xub5-50" style="edgeStyle=orthogonalEdgeStyle;rounded=0;orthogonalLoop=1;jettySize=auto;html=1;exitX=0.5;exitY=1;exitDx=0;exitDy=0;entryX=0.5;entryY=0;entryDx=0;entryDy=0;entryPerimeter=0;" edge="1" parent="1" source="W67yTYTHdaAG88P1Xub5-4" target="W67yTYTHdaAG88P1Xub5-21">
          <mxGeometry relative="1" as="geometry" />
        </mxCell>
        <mxCell id="W67yTYTHdaAG88P1Xub5-54" value="" style="group" vertex="1" connectable="0" parent="1">
          <mxGeometry x="-10" y="410" width="160" height="60" as="geometry" />
        </mxCell>
        <mxCell id="W67yTYTHdaAG88P1Xub5-47" value="&lt;b&gt;p&lt;/b&gt;: logical page number" style="text;html=1;align=left;verticalAlign=middle;whiteSpace=wrap;rounded=0;" vertex="1" parent="W67yTYTHdaAG88P1Xub5-54">
          <mxGeometry width="160" height="20" as="geometry" />
        </mxCell>
        <mxCell id="W67yTYTHdaAG88P1Xub5-48" value="&lt;b&gt;d&lt;/b&gt;: page offset" style="text;html=1;align=left;verticalAlign=middle;whiteSpace=wrap;rounded=0;" vertex="1" parent="W67yTYTHdaAG88P1Xub5-54">
          <mxGeometry y="20" width="160" height="20" as="geometry" />
        </mxCell>
        <mxCell id="W67yTYTHdaAG88P1Xub5-53" value="&lt;b&gt;p&#39;&lt;/b&gt;: physical page number" style="text;html=1;align=left;verticalAlign=middle;whiteSpace=wrap;rounded=0;" vertex="1" parent="W67yTYTHdaAG88P1Xub5-54">
          <mxGeometry y="40" width="160" height="20" as="geometry" />
        </mxCell>
        <mxCell id="W67yTYTHdaAG88P1Xub5-55" value="page table" style="text;html=1;align=center;verticalAlign=middle;whiteSpace=wrap;rounded=0;" vertex="1" parent="1">
          <mxGeometry x="250" y="290" width="60" height="30" as="geometry" />
        </mxCell>
        <mxCell id="W67yTYTHdaAG88P1Xub5-56" value="" style="group" vertex="1" connectable="0" parent="1">
          <mxGeometry x="240" y="320" width="80" height="160" as="geometry" />
        </mxCell>
        <mxCell id="W67yTYTHdaAG88P1Xub5-6" value="p&#39;" style="rounded=0;whiteSpace=wrap;html=1;" vertex="1" parent="W67yTYTHdaAG88P1Xub5-56">
          <mxGeometry x="40" width="40" height="40" as="geometry" />
        </mxCell>
        <mxCell id="W67yTYTHdaAG88P1Xub5-7" value="p&#39;" style="rounded=0;whiteSpace=wrap;html=1;" vertex="1" parent="W67yTYTHdaAG88P1Xub5-56">
          <mxGeometry x="40" y="40" width="40" height="40" as="geometry" />
        </mxCell>
        <mxCell id="W67yTYTHdaAG88P1Xub5-8" value="p&#39;" style="rounded=0;whiteSpace=wrap;html=1;" vertex="1" parent="W67yTYTHdaAG88P1Xub5-56">
          <mxGeometry x="40" y="80" width="40" height="40" as="geometry" />
        </mxCell>
        <mxCell id="W67yTYTHdaAG88P1Xub5-9" value="p&#39;" style="rounded=0;whiteSpace=wrap;html=1;" vertex="1" parent="W67yTYTHdaAG88P1Xub5-56">
          <mxGeometry x="40" y="120" width="40" height="40" as="geometry" />
        </mxCell>
        <mxCell id="W67yTYTHdaAG88P1Xub5-10" value="0" style="rounded=0;whiteSpace=wrap;html=1;" vertex="1" parent="W67yTYTHdaAG88P1Xub5-56">
          <mxGeometry width="40" height="40" as="geometry" />
        </mxCell>
        <mxCell id="W67yTYTHdaAG88P1Xub5-11" value="1" style="rounded=0;whiteSpace=wrap;html=1;" vertex="1" parent="W67yTYTHdaAG88P1Xub5-56">
          <mxGeometry y="40" width="40" height="40" as="geometry" />
        </mxCell>
        <mxCell id="W67yTYTHdaAG88P1Xub5-12" value="2" style="rounded=0;whiteSpace=wrap;html=1;" vertex="1" parent="W67yTYTHdaAG88P1Xub5-56">
          <mxGeometry y="80" width="40" height="40" as="geometry" />
        </mxCell>
        <mxCell id="W67yTYTHdaAG88P1Xub5-13" value="3" style="rounded=0;whiteSpace=wrap;html=1;" vertex="1" parent="W67yTYTHdaAG88P1Xub5-56">
          <mxGeometry y="120" width="40" height="40" as="geometry" />
        </mxCell>
        <mxCell id="W67yTYTHdaAG88P1Xub5-58" value="&lt;b&gt;ADDRESS&lt;br&gt;TRANSLATION&lt;/b&gt;" style="text;html=1;align=right;verticalAlign=middle;whiteSpace=wrap;rounded=0;" vertex="1" parent="1">
          <mxGeometry x="370" y="440" width="60" height="30" as="geometry" />
        </mxCell>
      </root>
    </mxGraphModel>
  </diagram>
</mxfile>
